<svg xmlns="http://www.w3.org/2000/svg" version="1.0" width="135.23621912432412" height="124.9999984981506" preserveAspectRatio="xMidYMid meet" style=""><rect id="backgroundrect" width="100%" height="100%" x="0" y="0" fill="none" stroke="none" class="" style=""/>
<g class="currentLayer" style=""><title>Layer 1</title><g transform="translate(0,225) scale(0.10000000149011612,-0.10000000149011612) " fill="#000000" stroke="none" id="svg_1" class="selected">
<path d="M529.6207700981377,2228.8548560180934 c-36.681963324546814,-15.88360595703125 -69.39830899238586,-51.62171936035156 -83.27797079086304,-88.35255813598633 c-6.939830899238586,-18.86178207397461 -10.90544855594635,-196.55962371826172 -10.90544855594635,-524.1589965820312 c0,-481.47180557250977 0.9914044141769406,-497.355411529541 20.81949269771576,-536.0717010498047 c50.56162512302399,-100.26526260375977 202.24650049209595,-97.2870864868164 249.8339123725891,3.9709014892578125 c14.871066212654114,30.774486541748047 16.853875041007996,85.37438201904297 16.853875041007996,483.4572563171387 l0,448.7118682861328 l112.02869880199432,-2.9781761169433594 c105.08886790275574,-3.9709014892578125 115.00291204452515,-5.956352233886719 148.71066212654114,-31.7672119140625 c49.570220708847046,-37.72356414794922 68.40690457820892,-77.43257904052734 68.40690457820892,-145.9306297302246 c0,-124.09067153930664 -61.46707367897034,-177.6978416442871 -202.24650049209595,-178.69056701660156 l-77.32954430580139,0 l0,-115.15614318847656 l0,-116.14886856079102 l131.85678708553314,5.956352233886719 c161.59891951084137,6.949077606201172 231.98863291740417,27.796310424804688 303.3697507381439,92.32345962524414 c81.29516196250916,73.46167755126953 114.0115076303482,143.9451789855957 125.9083606004715,272.00675201416016 c6.939830899238586,73.46167755126953 -12.888257384300232,173.7269401550293 -46.59600746631622,240.23954010009766 c-47.587411880493164,93.3161849975586 -149.70206654071808,170.74876403808594 -257.76514768600464,195.56689834594727 c-67.41550016403198,15.88360595703125 -462.9858614206314,12.90542984008789 -499.6678247451782,-2.9781761169433594 z" id="svg_2"/>
<path d="M82.4973793043373,1643.146886352566 c-84.26937520503998,-36.730838775634766 -86.25218403339386,-156.8506088256836 -2.9742132425308228,-200.53052520751953 c20.81949269771576,-9.927253723144531 64.44128692150116,-13.898155212402344 167.54734599590302,-13.898155212402344 l138.79661798477173,0 l0,114.16341781616211 l0,114.16341781616211 l-135.8224047422409,0 c-93.19201493263245,-0.9927253723144535 -146.72785329818726,-4.963626861572266 -167.54734599590302,-13.898155212402344 z" id="svg_3"/>
</g></g></svg>